<?xml version="1.0" encoding="UTF-8" standalone="no"?>
<!DOCTYPE svg PUBLIC "-//W3C//DTD SVG 1.1//EN" "http://www.w3.org/Graphics/SVG/1.1/DTD/svg11.dtd">
<svg width="100%" height="100%" viewBox="0 0 61 12" version="1.1" xmlns="http://www.w3.org/2000/svg" xmlns:xlink="http://www.w3.org/1999/xlink" xml:space="preserve" xmlns:serif="http://www.serif.com/" style="fill-rule:evenodd;clip-rule:evenodd;stroke-linejoin:round;stroke-miterlimit:2;">
    <path id="path6" d="M24.307,0.604L24.308,11.472L27.377,11.472L27.377,0.604L24.307,0.604ZM0.16,0.589L0.16,11.472L3.257,11.472L3.257,3.209L5.656,3.209C6.45,3.209 7.016,3.406 7.4,3.816C7.885,4.333 8.083,5.167 8.083,6.694L8.083,11.472L11.084,11.472L11.084,5.459C11.084,1.167 8.348,0.589 5.672,0.589L0.16,0.589ZM29.25,0.604L29.25,11.472L34.228,11.472C36.881,11.472 37.747,11.031 38.683,10.042C39.345,9.348 39.772,7.823 39.772,6.159C39.772,4.631 39.41,3.268 38.779,2.419C37.642,0.9 36.003,0.604 33.558,0.604L29.25,0.604ZM32.294,2.97L33.614,2.97C35.528,2.97 36.767,3.831 36.767,6.061C36.767,8.293 35.528,9.153 33.614,9.153L32.294,9.153L32.294,2.97ZM19.882,0.604L17.319,9.218L14.865,0.604L11.551,0.604L15.057,11.472L19.481,11.472L23.015,0.604L19.882,0.604ZM41.2,11.472L44.271,11.472L44.271,0.604L41.2,0.604L41.2,11.472ZM49.806,0.608L45.52,11.47L48.546,11.47L49.224,9.549L54.297,9.549L54.939,11.47L58.225,11.47L53.906,0.608L49.806,0.608ZM51.798,2.589L53.658,7.678L49.88,7.678L51.798,2.589Z" style="fill:rgb(115,115,115);fill-rule:nonzero;"/>
</svg>
