<?xml version="1.0" encoding="UTF-8" standalone="no"?>
<!DOCTYPE svg PUBLIC "-//W3C//DTD SVG 1.1//EN" "http://www.w3.org/Graphics/SVG/1.1/DTD/svg11.dtd">
<svg width="100%" height="100%" viewBox="0 0 103 32" version="1.1" xmlns="http://www.w3.org/2000/svg" xmlns:xlink="http://www.w3.org/1999/xlink" xml:space="preserve" xmlns:serif="http://www.serif.com/" style="fill-rule:evenodd;clip-rule:evenodd;stroke-linejoin:round;stroke-miterlimit:2;">
    <g transform="matrix(1,0,0,1,-8352,-6734)">
        <g id="Sign-Up" serif:id="Sign Up" transform="matrix(1,0,0,1,8352,6734)">
            <rect x="0" y="0" width="103" height="32" style="fill:none;"/>
            <path d="M87,0C95.835,0.005 103,7.172 103,16C103,24.831 95.831,32 87,32L16,32C7.169,32 0,24.831 0,16C0,7.172 7.165,0.005 16,0L87,0ZM20.703,18.707C20.842,20.595 22.52,21.871 24.844,21.871C27.313,21.871 28.93,20.551 28.93,18.582C28.93,16.988 27.977,16.066 25.648,15.488L24.531,15.207C22.813,14.777 22.117,14.207 22.117,13.223C22.117,11.996 23.234,11.105 24.852,11.105C26.414,11.105 27.5,11.918 27.672,13.121L28.75,13.121C28.633,11.402 27.039,10.129 24.883,10.129C22.594,10.129 21.023,11.434 21.023,13.254C21.023,14.785 21.914,15.668 24.031,16.191L25.32,16.52C27.063,16.949 27.836,17.637 27.836,18.699C27.836,19.949 26.625,20.895 24.938,20.895C23.223,20.895 21.936,20.008 21.781,18.707L20.703,18.707ZM43.477,16.965L43.477,17.355C43.477,19.48 42.047,20.879 39.836,20.879C37.43,20.879 35.883,18.957 35.883,15.996C35.883,13.043 37.43,11.121 39.813,11.121C41.594,11.121 42.875,12.051 43.344,13.66L44.43,13.66C44.023,11.512 42.219,10.129 39.813,10.129C36.781,10.129 34.789,12.465 34.789,15.996C34.789,19.551 36.781,21.871 39.836,21.871C42.688,21.871 44.539,20.059 44.539,17.27L44.539,16.02L40.039,16.02L40.039,16.965L43.477,16.965ZM64.102,10.363L63.039,10.363L63.039,17.73C63.039,20.176 64.703,21.84 67.398,21.84C70.094,21.84 71.766,20.176 71.766,17.73L71.766,10.363L70.695,10.363L70.695,17.66C70.695,19.551 69.438,20.855 67.398,20.855C65.359,20.855 64.102,19.551 64.102,17.66L64.102,10.363ZM32.352,10.363L31.281,10.363L31.281,21.637L32.352,21.637L32.352,10.363ZM48.063,10.363L47.008,10.363L47.008,21.637L48.063,21.637L48.063,12.27L48.164,12.27L54.758,21.637L55.789,21.637L55.789,10.363L54.734,10.363L54.734,19.723L54.633,19.723L48.063,10.363ZM78.687,10.363L74.68,10.363L74.68,21.637L75.75,21.637L75.75,17.387L78.672,17.387C80.82,17.387 82.297,15.965 82.297,13.895C82.297,11.796 80.848,10.367 78.687,10.363ZM78.43,16.434L75.75,16.434L75.75,11.316L78.43,11.316C80.187,11.316 81.211,12.27 81.211,13.895C81.211,15.477 80.168,16.43 78.43,16.434Z" style="fill:white;"/>
        </g>
    </g>
</svg>
