<?xml version="1.0" encoding="UTF-8" standalone="no"?>
<!DOCTYPE svg PUBLIC "-//W3C//DTD SVG 1.1//EN" "http://www.w3.org/Graphics/SVG/1.1/DTD/svg11.dtd">
<svg width="100%" height="100%" viewBox="0 0 103 32" version="1.1" xmlns="http://www.w3.org/2000/svg" xmlns:xlink="http://www.w3.org/1999/xlink" xml:space="preserve" xmlns:serif="http://www.serif.com/" style="fill-rule:evenodd;clip-rule:evenodd;stroke-linejoin:round;stroke-miterlimit:2;">
    <g transform="matrix(1,0,0,1,-8352,-6734)">
        <g id="Sign-Up" serif:id="Sign Up" transform="matrix(1,0,0,1,8352,6734)">
            <rect x="0" y="0" width="103" height="32" style="fill:none;"/>
            <path d="M87,0C95.837,0.006 103,7.173 103,16C103,24.831 95.831,32 87,32L16,32C7.169,32 0,24.831 0,16C0,7.173 7.163,0.006 16,0L87,0ZM13.004,19.384C13.178,21.743 15.275,23.339 18.18,23.339C21.266,23.339 23.287,21.688 23.287,19.228C23.287,17.235 22.096,16.083 19.186,15.36L17.789,15.009C15.641,14.472 14.771,13.759 14.771,12.528C14.771,10.995 16.168,9.882 18.189,9.882C20.143,9.882 21.5,10.897 21.715,12.401L23.063,12.401C22.916,10.253 20.924,8.661 18.229,8.661C15.367,8.661 13.404,10.292 13.404,12.567C13.404,14.481 14.518,15.585 17.164,16.239L18.775,16.649C20.953,17.187 21.92,18.046 21.92,19.374C21.92,20.937 20.406,22.118 18.297,22.118C16.154,22.118 14.545,21.01 14.352,19.384L13.004,19.384ZM41.471,17.206L41.471,17.694C41.471,20.351 39.684,22.099 36.92,22.099C33.912,22.099 31.979,19.696 31.979,15.995C31.979,12.304 33.912,9.901 36.891,9.901C39.117,9.901 40.719,11.063 41.305,13.075L42.662,13.075C42.154,10.39 39.898,8.661 36.891,8.661C33.102,8.661 30.611,11.581 30.611,15.995C30.611,20.438 33.102,23.339 36.92,23.339C40.484,23.339 42.799,21.073 42.799,17.587L42.799,16.024L37.174,16.024L37.174,17.206L41.471,17.206ZM67.252,8.954L65.924,8.954L65.924,18.163C65.924,21.22 68.004,23.3 71.373,23.3C74.742,23.3 76.832,21.22 76.832,18.163L76.832,8.954L75.494,8.954L75.494,18.075C75.494,20.438 73.922,22.069 71.373,22.069C68.824,22.069 67.252,20.438 67.252,18.075L67.252,8.954ZM27.564,8.954L26.227,8.954L26.227,23.046L27.564,23.046L27.564,8.954ZM47.203,8.954L45.885,8.954L45.885,23.046L47.203,23.046L47.203,11.337L47.33,11.337L55.572,23.046L56.861,23.046L56.861,8.954L55.543,8.954L55.543,20.653L55.416,20.653L47.203,8.954ZM85.484,8.954L80.475,8.954L80.475,23.046L81.812,23.046L81.812,17.733L85.465,17.733C88.15,17.733 89.996,15.956 89.996,13.368C89.996,10.745 88.185,8.959 85.484,8.954ZM85.162,16.542L81.812,16.542L81.812,10.146L85.162,10.146C87.359,10.146 88.639,11.337 88.639,13.368C88.639,15.347 87.335,16.538 85.162,16.542Z" style="fill:white;"/>
        </g>
    </g>
</svg>
