<?xml version="1.0" encoding="UTF-8" standalone="no"?>
<!DOCTYPE svg PUBLIC "-//W3C//DTD SVG 1.1//EN" "http://www.w3.org/Graphics/SVG/1.1/DTD/svg11.dtd">
<svg width="100%" height="100%" viewBox="0 0 103 32" version="1.1" xmlns="http://www.w3.org/2000/svg" xmlns:xlink="http://www.w3.org/1999/xlink" xml:space="preserve" xmlns:serif="http://www.serif.com/" style="fill-rule:evenodd;clip-rule:evenodd;stroke-linejoin:round;stroke-miterlimit:2;">
    <g transform="matrix(1,0,0,1,-8352,-6734)">
        <g id="Sign-Up" serif:id="Sign Up" transform="matrix(1,0,0,1,8352,6734)">
            <rect x="0" y="0" width="103" height="32" style="fill:none;"/>
            <path d="M87,0C95.835,0.005 103,7.172 103,16C103,24.831 95.831,32 87,32L16,32C7.169,32 0,24.831 0,16C0,7.172 7.165,0.005 16,0L87,0ZM19.938,18.691C20.092,20.641 21.739,21.902 24.125,21.902C26.703,21.902 28.336,20.582 28.336,18.512C28.336,16.855 27.398,15.949 25.063,15.363L23.883,15.051C22.328,14.652 21.711,14.145 21.711,13.262C21.711,12.121 22.703,11.371 24.203,11.371C25.609,11.371 26.563,12.059 26.758,13.215L28.172,13.215C28.055,11.395 26.43,10.098 24.25,10.098C21.867,10.098 20.266,11.395 20.266,13.309C20.266,14.91 21.148,15.832 23.188,16.348L24.633,16.723C26.188,17.113 26.891,17.723 26.891,18.684C26.891,19.801 25.773,20.621 24.258,20.621C22.66,20.621 21.537,19.875 21.359,18.691L19.938,18.691ZM43.016,17.137L43.016,17.41C43.016,19.316 41.648,20.605 39.633,20.605C37.367,20.605 35.961,18.84 35.961,15.996C35.961,13.191 37.391,11.395 39.625,11.395C41.297,11.395 42.43,12.199 42.914,13.723L44.344,13.723C43.938,11.488 42.125,10.098 39.625,10.098C36.539,10.098 34.516,12.434 34.516,15.996C34.516,19.605 36.508,21.902 39.625,21.902C42.508,21.902 44.414,20.059 44.414,17.277L44.414,15.902L39.844,15.902L39.844,17.137L43.016,17.137ZM64.734,10.363L63.328,10.363L63.328,17.762C63.328,20.168 65.008,21.902 67.805,21.902C70.602,21.902 72.281,20.168 72.281,17.762L72.281,10.363L70.875,10.363L70.875,17.668C70.875,19.371 69.758,20.605 67.805,20.605C65.852,20.605 64.734,19.371 64.734,17.668L64.734,10.363ZM32.078,10.363L30.672,10.363L30.672,21.637L32.078,21.637L32.078,10.363ZM48.266,10.363L46.898,10.363L46.898,21.637L48.289,21.637L48.289,12.895L48.414,12.895L54.531,21.637L55.898,21.637L55.898,10.363L54.508,10.363L54.508,19.137L54.383,19.137L48.266,10.363ZM79.453,10.363L75.195,10.363L75.195,21.637L76.602,21.637L76.602,17.613L79.437,17.613C81.555,17.613 83.062,16.121 83.062,14.012C83.062,11.866 81.59,10.368 79.453,10.363ZM79.086,16.363L76.602,16.363L76.602,11.613L79.086,11.613C80.719,11.613 81.617,12.465 81.617,14.012C81.617,15.501 80.691,16.36 79.086,16.363Z" style="fill:white;"/>
        </g>
    </g>
</svg>
